<svg xmlns="http://www.w3.org/2000/svg" xml:space="preserve" width="96" height="96" style="shape-rendering:geometricPrecision;text-rendering:geometricPrecision;image-rendering:optimizeQuality;fill-rule:evenodd;clip-rule:evenodd" viewBox="0 0 19704.86 19704.86"><defs><style>.str0,.str1{stroke:#373435;stroke-width:6.94;stroke-miterlimit:2.61313}.str1{stroke-width:3}.fil1,.fil2,.fil3{fill:#fff212}.fil1{fill-rule:nonzero}</style></defs><g id="Layer_x0020_1"><path d="M9852.43 3.47c5439.43 0 9848.96 4409.53 9848.96 9848.96 0 5439.42-4409.53 9848.95-9848.96 9848.95-5439.42 0-9848.95-4409.53-9848.95-9848.95C3.48 4413 4413.01 3.47 9852.43 3.47z" class="str0" style="fill:#373435"/><path d="M4096.32 6269.47c-28.54 7.65-59.81 22.38-95.02 43.93-34.52 21.95-67.53 53.89-98.18 96.73-30.81 42.31-57.46 97.94-79.72 165.67-22.11 68.27-35.98 152.22-41.47 252.39-5.48 100.17.15 218.15 17.06 354.46 17.04 136.85 49.45 294.42 97.36 473.22 45.6 170.18 94.3 315.29 146.23 435.87 51.79 120.04 105.13 220.04 159.89 299.45 54.22 79.56 109.1 142.2 163.82 187 55.4 45.19 108.95 77.02 161.48 96.42 52.39 18.87 102.32 28.57 149.51 28.05 47.34.02 90.39-5.17 129.17-15.56 41.46-11.11 81.49-27.61 120.61-49.64 39.27-21.49 76.55-48.22 111.6-78.97s67.33-65.37 97.53-103.48c29.52-38.5 55.18-80.59 77.14-125.72l89.6 52.18c-20.85 47.15-48.41 97.25-81.74 149.47-33.34 52.23-74.55 103.1-123.91 151.53-49.75 49.12-107.7 93.51-174.78 134-67.08 40.48-144.44 72.76-232.76 96.43-137.87 36.94-273.12 44.89-405.74 23.87-132.09-21.18-257.28-74.8-374.94-162.76-117.52-87.42-224.54-211.13-321.1-371.13-96.02-160.14-177.03-361.24-241.82-603.05-60.9-227.27-87.9-433.61-81.16-619.55 6.35-185.26 39.59-347.71 99.19-487.2 59.59-139.5 142.46-254.63 249.13-345.56 106.52-91.46 228.52-155.32 366.39-192.26 91.56-24.53 176.8-38.14 256.82-41.11 80.16-2.43 151.57 5.56 215.3 23.7 63.35 18.82 116.86 48.35 160.15 89.27 42.61 40.54 72.55 91.97 89.29 154.44 7.5 28 10.74 59.46 9.81 92.61-1.32 33.83-8.22 66.28-20.82 96.78-12.46 31.05-30.53 58.4-54.6 82.74-24.21 23.81-54.9 40.69-93.13 50.93-33.39 8.94-61.8 8.48-84.01-1.16-22.21-9.63-40.87-25.41-56.52-47.2-15.11-21.93-28.54-48.34-39.46-78.32-11.06-30.52-21.19-61.85-30.93-93.88-9.88-32.56-21.09-63.61-33.23-93.84-11.46-29.83-26.5-55.81-44.31-77.02-17.12-20.81-38.62-36.41-63.52-45.32-24.9-8.91-56.54-8.52-94.24 1.58zm1792.85 1753.48c3.75 14 5.39 30.88 5.59 51.03.74 20-5.8 40.81-18.42 62.66-12.76 21.31-34.18 42.64-64.39 63.43-29.53 21.19-72.65 39.09-128.12 53.96-56.01 15.01-101.36 20.23-136.75 15.28-34.7-4.56-62.58-13.83-82.42-27.56-19.85-13.74-34.59-29.98-43.41-47.83-8.28-17.98-14.48-32.48-17.65-44.33l-545.33-2035.22c-8.22-30.7-22.3-55.21-42.37-74.08-20.6-18.72-47.33-23.69-81.26-14.59-17.77 4.76-32.67 11.64-44.01 21.03-11.87 9.54-23.03 21.76-35.08 37.11l-41.34-29.33c18.9-26.42 40.09-52.88 64.37-80.74 24.43-27.32 52.12-53.22 83.23-77.14 31.65-24.06 65.49-46.41 103.43-66.39 37.26-20.37 77.96-36.48 122.13-48.31 68.4-18.33 124.17-23.46 166.92-14.71 42.61 8.21 76.67 23.33 101.66 45.5 24.84 21.63 43.26 47.28 55.11 76.43 11.85 29.15 21.07 54.97 27.28 78.12l550.82 2055.68zm925.99-975.43c-6.93-25.85-21.02-44.01-41.33-53-20.84-8.84-44.26-10.07-70.11-3.15-37.16 9.96-69.86 27.95-98.24 53.45-28.92 25.64-51.36 58.21-67.87 97.84-16.65 39.1-25.76 84.83-27.46 136.66-2.24 51.97 5.63 109.32 22.51 172.33 16.31 60.85 34.18 110.33 54.01 147.73 19.3 37.54 40.2 66 61.63 85.65 21.43 19.66 43.68 31.59 66.2 35.94 22.38 3.82 44.68 3.03 66.76-2.88 27.46-7.36 51.44-21.29 71.78-42.32 20.48-20.5 36.58-44.44 48.44-71.28 11.85-26.84 19.76-55.51 22.78-85.18 3.41-30.35 1.44-59.26-5.93-86.73l-103.18-385.07zm-436.11-623.72c-36.09 9.67-67.78 22.78-96.17 39.62-28 16.16-51.5 34-70.26 52.31-18.62 18.84-32.1 37.46-40.98 56-8.35 18.4-10.91 34.67-7.3 48.13 4.33 16.16 15.44 25.3 33.32 27.44 18.57 2.53 38.51 5.84 60.74 9.12 22.38 3.81 44.01 11.3 64.64 23.66 21.02 11.69 35.74 34.29 44.83 68.22 5.92 22.08 6.95 43.16 2.85 64.46-4.25 20.76-11.77 40.1-23.1 58.14-11.72 18.72-26.61 34.26-44.91 47.82-18.3 13.56-38.83 23.11-60.91 29.02-58.7 15.73-111.44 8.5-158.74-21.54-46.91-30.72-79.36-78.6-97.11-144.84-17.17-64.09-15.2-123.5 6.46-178.37 21.12-54.72 55.19-104.26 101.1-148.31 46.46-44.2 102.08-82.19 166.58-115.06 64.65-32.33 131.17-57.66 199.56-75.98 81.86-21.93 162.41-33.7 242.03-35.99 79.63-2.29 152.97 8.65 220.99 31.98 67.48 23.48 126.53 60.76 177.02 111.31 50.09 51.23 86.67 118.78 109.61 204.41l238.83 891.32c2.6 9.69 5.87 19.78 10.13 31.34 4.11 11.02 9.69 21.07 15.91 29.22 6.91 8.54 15.39 14.35 25.74 18.5 9.81 4.3 23.06 4.21 38.68.03 18.85-5.05 34.6-17.35 47.01-35.69 12.4-18.33 23.05-36.77 31.93-55.31l48.26 22.86c-9.7 26.26-22.06 55.55-37.07 87.85-15.55 32.45-35.3 64.3-61.01 95.43-25.57 31.67-56.85 61.41-94.68 88.29-37.82 26.87-83.59 47.8-137.44 62.22-66.24 17.75-130.28 13.55-192.52-11.91-61.7-25.6-111.93-77.37-149.48-155.05-21.81 54.33-46.71 101.41-74.57 141.78-28 39.83-58.52 74.56-91.71 103.65-32.65 28.95-67.13 53.2-103.2 71.52-35.93 18.86-73.55 33.56-112.33 43.95-50.62 13.57-101.8 18.62-153.37 15.7-51.58-2.92-100.37-16.98-147.16-40.8-46.4-24.51-88.39-60.59-125.73-109.46-37.19-48.33-66.4-112.08-87.61-191.26-25.69-95.86-27.22-179.15-5.83-250.11 21.24-71.5 57.62-136.08 107.91-194 50.28-57.92 110.77-112.23 180.93-162.77 70.83-50.15 142.72-102.89 215.77-157.68 54.36-40.54 89.54-88.06 104.7-143.5 15.16-55.43 15.49-108.05 1.93-158.68-20.93-78.09-60.28-134.5-118.47-168.55-58.33-34.59-127.16-41.55-205.78-20.48zm3171.37-452.06c-18.61-69.47-38.91-125.8-60.72-168.44-21.28-42.79-41.46-77.2-60.86-104.33-18.85-27.28-35.72-49.31-50.61-66.1-14.89-16.79-24.1-33.94-28.57-50.64-4.19-15.62-1.87-30.67 8.31-44.36 9.5-14.09 22.27-26.75 37.49-38.91 15.21-12.16 32.22-21.92 49.67-30.05 17.44-8.14 32.09-13.8 43.4-16.83 30.7-8.22 53.93-9.83 69.56-5.36 16.31 4.87 31.42 18.14 46.53 40.06 17.38 28.24 35.2 66.76 52.25 115.3 16.65 49.22 33.09 101.96 48.39 159.05 21.65 80.78 40.61 170.95 56.89 270.48 16.82 99.39 27.72 200.37 33.52 303.87 5.65 102.96 4.66 204.82-3.12 305.04-7.24 100.07-24.23 191.78-50.42 275-26.19 83.21-63.28 153.76-110.58 212.03-47.31 58.28-108.31 97.71-183.17 117.77-58.7 15.73-115.2 18.17-167.86 6.88-53.2-11.14-103.87-32.2-151.46-63.31-48.13-30.98-93.43-70.79-136.15-118.22-42.33-48.11-82.98-100.72-120.86-158.1-7.06 70.58-18.51 137.72-35.43 201.7-17.06 63.45-39.22 120.76-66.34 172.48-27.27 51.18-61.3 94.35-101.41 129.92-40.11 35.56-86.49 60.69-140.34 75.12-66.24 17.75-128.84 18.94-187.8 3.56-58.28-14.98-114.19-42.71-166.24-81.87-52.2-39.69-101.71-88.77-148.01-147.37-45.75-58.74-89.29-122.11-129.52-190.41-40.24-68.3-77.68-139.08-112.06-213.56-34.78-73.8-66.3-146.17-95.47-216.28-28.5-69.71-54.76-135.41-77.71-197.37-23.34-61.28-44.39-113.94-63.26-158.52-18.26-40.13-37.83-70.1-58.57-89.36-20.21-19.41-46.94-24.37-80.87-15.28-17.77 4.76-32.13 11.5-43.33 21.43-10.65 9.78-22.2 22.69-33.72 37.89l-43.92-30.37c18.89-26.42 41.02-53.7 65.44-81.03 24.96-27.47 52.66-53.36 83.23-77.14 30.97-24.46 64.95-46.27 102.21-66.64 37.94-19.98 78.65-36.08 122.81-47.92 63.01-16.88 117.06-19.82 161.61-8.67 44.55 11.15 82.46 29.85 113.59 55.57 31.28 26.25 56.67 56.39 76.18 90.42 19.11 34.7 34.92 65.68 47.16 94.15 61.42 153.83 117.79 288.8 168.43 404.53 50.78 116.27 97.83 212.18 140.63 287.88 42.94 76.23 82.01 131.57 117.89 166.4 35.89 34.83 70.59 48.04 104.52 38.95 22.08-5.92 41.03-21.38 56.98-45.86 15.95-24.47 28.81-56.2 38.57-95.19 9.9-38.44 17.24-84.28 21.1-136.68 3.85-52.41 4.25-109.08 1.73-170.17-26.21-54.74-50.27-110.05-72.96-164.58-22.83-55.07-43.87-107.74-63.8-158.39-19.24-50.26-38.3-97.68-55.26-141.62-17.51-43.8-34.11-82.06-49.81-114.8-42.17-94.91-52.93-171.69-31.59-229.93 20.65-58.64 82.95-101.89 185.81-129.45 45.24-12.12 84.49-18.6 117.35-18.74 33.4-.29 63.15 7.32 89.39 23.38 26.24 16.06 50.87 41.2 73.21 75.05 22.88 33.7 45.42 79.03 68.4 134.63 62.21 152.46 119.4 288.37 171.44 407.19 52.18 119.35 100.65 218.35 144.45 297.81 43.95 80 83.88 138.57 120.64 176.63 36.75 38.06 71.89 52.89 105.82 43.8 35.54-9.52 63.02-40.55 81.34-92.79 18.87-52.39 29.53-118.16 32.13-196.78 2.75-78.09-3.07-166.57-15.94-264.14-13.55-97.96-33.35-197.71-60.34-298.42zm911.12-645.31c-24.24 6.49-46.52 15.93-66.34 28.17-19.81 12.24-35.92 27.52-49.4 46.14-12.94 18.47-20.96 40.25-24.88 64.39-3.92 24.14-1.45 50.61 6.49 80.23 10.97 40.93 36.48 77.96 77.46 110.27s89.4 64.36 145.78 96.01c56.39 31.65 116.99 63.9 181.78 96.76 64.26 33 126 69.56 184.56 109.28 58.7 40.26 111.26 85.63 156.75 136.94 45.89 50.63 77.85 109.59 95.89 176.91 20.35 75.94 25.46 146.72 15.34 212.35-9.98 66.17-33.32 125.53-70.29 179.3-36.82 54.31-86.08 100.99-148.17 140.72-62.09 39.72-134.6 70.7-218.07 93.06-72.7 19.48-141.15 26.85-205.34 22.12-64.19-4.74-123.75-15.91-177.07-33.95-53.86-17.89-101.69-39.13-143.49-63.72-41.41-25.27-74.8-48.65-99.93-71.35l44.4-54.04c18.19 11.87 40.04 24.48 65.95 37.17 25.91 12.69 53.69 23.71 83.72 32.41 30.04 8.69 60.97 14.26 93.33 16.55 32.22 1.76 63.28-.79 93.98-9.02 75.94-20.35 132.96-55.26 171.77-104.33 38.66-49.61 48.46-109.96 29.27-181.59-10.68-39.85-35.26-77.72-73.05-113.19-37.79-35.48-82.33-70.3-134.3-104.85-52.52-34.42-108.15-69.73-167.46-105.79a2029.73 2029.73 0 0 1-169.37-115.09c-53.7-41.02-101.39-85.39-141.81-132.86-41.11-47.86-69.72-100.8-85.6-160.04-17.75-66.24-19.73-127.48-6.07-184.24 13.65-56.76 38.23-107.22 74.27-151.51 35.9-44.83 80.57-82.78 133.72-114.91 52.76-31.46 109.83-55.41 170.69-71.71 70.55-18.91 136.37-29.61 197.85-32.81 61.09-2.52 115.69 3.06 164.08 17.8 48.4 14.74 89.37 38.39 122.38 71.11 33.01 32.71 56.44 74.92 70.3 126.63 10.68 39.85 7.13 78.32-11.32 115.02-18.6 36.15-51.18 61.05-98.57 73.74-45.24 12.12-82.31 11.67-111.34-1.91-28.89-13.04-47.81-36.26-56.9-70.19-5.92-22.08-5.15-40.76 2.84-56.17 7.31-15.81 16.95-29.36 28.93-40.66 11.3-11.69 21.81-22 31.14-30.28 9.72-8.96 13.08-17.94 10.49-27.63-7.94-29.62-29.76-48.59-66.15-57.31-36-9.4-79.24-7.05-128.25 6.08zM9450.75 8574.2c-35.5-132.49-69.85-237-103.45-312.84-33.21-76.54-65.52-132.52-96.56-168.65-31.04-36.13-60.48-57.68-88.32-64.65-27.7-6.43-54.2-6.26-79.52.53-30.7 8.22-55.46 23.52-74.83 46.02-19.37 22.5-34.78 46.84-46.39 72.46-11.61 25.62-21.06 50.67-27.28 74.85-6.76 24.32-12.66 43.22-18 55.62l282.41 1053.96c3.75 14 5.93 30.74 6.96 51.82.89 20.54-4.44 41.59-15.98 63.16-11.54 21.56-31.74 43.14-60.87 63.65-28.46 20.9-71.03 38.66-126.5 53.52-56.01 15.01-101.37 20.24-137.29 15.43-35.78-4.27-64.2-13.39-85.65-26.69-22-13.16-37.28-29.26-46.64-46.96s-15.55-32.2-18.72-44.05L8387.84 8243.7c-8.22-30.7-22.3-55.21-42.36-74.08-20.6-18.72-47.33-23.69-80.72-14.74-18.31 4.91-32.67 11.64-43.32 21.42-11.2 9.93-22.2 22.69-34.25 38.04l-43.39-30.51a891.755 891.755 0 0 1 65.45-81.03c24.43-27.32 52.66-53.36 83.23-77.14 30.43-24.31 64.95-46.26 102.21-66.63 37.4-19.83 78.11-35.94 122.27-47.77 68.4-18.33 124.74-21.3 168.5-8.78 44.3 12.37 78.98 31.94 105.26 58.96 26.68 26.33 46.26 56.29 59.26 89.75 12.32 33.06 22.27 61.57 28.47 84.72 23.77-66.4 54.51-128.32 92.22-185.76 14.88-24.19 32.59-48.56 52.06-72.83 20.01-24.41 42.07-47.64 66.18-69.68 24.25-21.51 50.31-40.61 79.24-57.6 29.07-16.44 59.69-29.27 92-37.93 71.63-19.19 138.79-22.76 201.08-10.01 62.83 12.61 121.41 45.97 176.82 99.81 54.87 53.98 106.76 131.29 154.96 231.5 48.21 100.22 93.12 229.03 135.11 385.75 40.84 152.41 62.87 288.5 65.57 408.43 2.69 119.92-7.17 225.31-30.11 316.31-23.09 90.46-55.87 168.51-98.06 232.92-42.59 65.09-88.06 119.42-137.5 163.26-49.05 43.15-98.1 77.66-147.31 102.96-49.35 24.77-92.47 42.67-130.42 53.99l-34.55-60.01c29.76-16.06 55.8-35.16 78.55-57.99 22.6-23.37 40.63-53.02 54.63-89.1 13.85-36.61 22.85-80.59 27-131.92 4.82-50.93 3.63-113.53-3.42-187.26-7.06-73.73-20.27-159.66-40.03-257.11-20.44-97.85-47.37-211.27-81.72-339.45zM8065.85 12511.56c6.56-74.74 13.04-154.48 19.44-239.23 6.26-85.33 11.37-172.85 15.2-263.14 3.82-90.29 6.4-180.86 7.98-273.02 1.73-91.58 1.56-181.36-1.07-269.18l-293.78-501.64c-20.45-34.37-27.61-67.5-22.57-99.09 5.58-31.74 18.94-60.69 41.2-87.13 22.25-26.45 50.64-49.63 85.16-69.52 35.07-20.06 73.12-35.31 113.85-46.93 35.23-10.05 67.6-17.4 96.7-21.31 28.56-3.75 55.09-3.78 78.52.21 23.57 4.58 44.87 14.21 63.35 29.04 19.03 14.67 36.23 36.15 52.56 63.52l862.16 1454.49c6.93-77.98 12.93-161.99 19.1-252.32a10880.1 10880.1 0 0 0 15.4-276.39c3.89-94.71 6.54-189.69 7.09-285.96 1.25-95.84.19-189.14-3.87-280.31-3.37-90.76-10.26-176.74-20.11-258.1-9.3-81.52-22.49-155.02-38.86-220.08-19.03-75.61-39.21-137.06-61.8-184.64-22.59-47.58-44.22-86.64-64.88-117.18-21.07-29.8-39.15-54.78-53.97-73.8-15.36-18.86-24.78-37.53-29.35-55.7-6.05-24.03-5.7-46.11 2.28-65.98 7.28-20.3 19.3-38.18 34.51-55.08 15.36-16.32 32.97-30.76 53.25-41.58 20.14-11.4 39.77-20.14 59.04-25.64 43.48-12.41 81.58-15.74 115.4-10.31 33.11 5 59.93 22.48 80.45 52.43 9.78 15.42 18.76 32.34 26.22 50.31 8.02 17.81 15.35 35.2 21.57 52.89 5.53 17.27 10.76 33.37 14.74 49.19 3.84 15.24 6.93 27.55 9.3 36.93 12.09 48.06 21.46 115.74 27.69 203.8 6.63 87.31 10.56 187.32 11.49 298.87 1.08 112.14.78 232.83-1.46 362.25-1.69 129.26-4.74 260.16-9.29 392.12-4 131.8-9.29 260.83-15.57 388.26-5.88 126.69-12.31 244.1-19.31 352.27-6.45 108-12.69 202.75-18.04 284.68-5.34 81.93-10.04 142.95-13.41 183.49-1.87 30.06-7.97 55.04-18.3 74.95-10.73 20.65-24.15 37.67-40.8 51.22-16.5 14.13-35.54 25.21-56.97 33.84-21.43 8.62-44.25 16.39-67.92 23.15-42.93 12.25-79.34 17.61-109.22 16.09-29.74-.94-54.15-6.54-73.5-15.46-20.05-9.36-35.3-20.71-46.99-34.33-11.83-14.22-20.88-26.71-28.52-38.35l-603.49-1031.4c-4.37 135.04-9.17 268.33-15.12 399.43-6.5 131.26-13.15 252.51-19.96 363.76-7.51 110.81-14.26 208.22-20.96 291.8-6.7 83.58-12.5 144.91-17.27 184.59-4.07 30.68-11.83 56.14-23.26 76.36-11.83 20.96-25.8 38.14-42.45 51.69-16.5 14.13-35.54 25.21-56.42 33.69-20.88 8.47-42.6 15.93-65.17 22.36-42.93 12.25-79.34 17.61-109.22 16.09-29.74-.94-54.15-6.54-74.06-15.3-19.5-9.52-35.3-20.71-46.99-34.33-12.39-14.06-21.98-26.4-29.63-38.04L6677.7 11245.53c-20.74-35.54-40.56-65.07-59.46-88.57-19.44-23.35-39.91-41.38-61.8-53.35-21.89-11.97-46.6-18.74-73.98-19.72-27.24-.39-59.09 4.3-95.97 14.82-29.72 8.48-63.04 26.15-98.83 52.7-35.65 27.13-67.88 60.82-96.54 101.67-28.26 40.09-48.94 86.83-62.35 139.02-13.42 52.2-12.95 107.97 2.09 167.76 9.29 36.93 21.47 64.23 35.74 83.4 14.96 19.6 29.41 32.44 43.76 40.28 14.76 7.09 28.64 10.68 41.49 10.15 13.4-.68 22.5-2.02 28-3.59 26.42-7.54 47.26-18.51 62.51-32.91 14.56-14.83 27.32-29.78 38.97-44.41 10.96-15.06 21.67-28.79 31.81-42.37 9.6-13.42 22.73-22.19 38.7-26.75 13.21-3.77 27.16-4.61 43.64-2.4 15.93 2.37 32.2 8.4 47.85 19.02 16.05 9.87 31.08 25.05 44.94 44.97 14.41 19.76 25.6 45.46 33.71 77.7 11.5 45.72 13.13 87.34 4.48 125.62-8.11 38.12-22.65 71.79-43.46 101.6-20.81 29.81-46.26 55.29-77.73 75.57-31.33 20.87-63.57 35.73-96.6 45.15-51.74 14.76-99.93 17.83-145.54 10.11-45.05-7.88-85.26-24.67-121.19-50.23-35.78-24.97-66.43-57.68-91.8-97.56-25.93-39.72-45.03-85.15-57.71-135.55-29.94-118.98-34.57-228.84-14.06-330.18 20.66-100.75 59.18-191.52 115.29-270.97 55.96-80.04 125.26-146.93 208.16-201.99 82.9-55.06 172.23-96.25 268.01-123.58 107.33-30.62 199.83-38.17 277.33-23.22 77.66 15.54 145.15 44.65 201.25 87.06 56.25 43 105.31 94.96 147.19 155.88 42.03 61.5 80.86 122.04 116.94 183.35l753.35 1277.61zm2549-249.22c3.83 15.24 5.51 33.61 6.56 56.55.36 22.52-6.19 45.74-19.08 69.52-12.89 23.78-34.08 47.41-64.41 69.89-30.19 23.06-73.7 42.39-130.39 58.56-57.24 16.33-103.6 22.02-139.21 16.47-36.01-4.8-64.51-14.89-85.34-29.67-20.83-14.79-36.45-32.31-44.91-51.89-9.02-19.41-15.35-35.19-18.59-48.09l-333.47-1325.16c-8.41-33.41-22.79-60.09-43.3-80.62-21.06-20.38-48.37-25.78-82.5-16.04-18.72 5.34-33.39 12.67-44.28 23.31-11.44 10.81-22.69 24.7-35.01 41.4l-44.34-33.2a960.118 960.118 0 0 1 66.89-88.19c24.96-29.74 53.82-58.07 85.07-83.94 31.1-26.46 66.39-50.35 104.46-72.52 38.22-21.58 79.83-39.11 124.97-51.99 69.91-19.94 126.91-25.53 170.45-16.59 44.09 8.78 78.36 25.38 103.9 49.5 26.09 23.96 44.91 51.89 57.17 84.2 11.56 31.88 21.14 60.56 27.48 85.76l337.9 1342.75zm-1053.02-1863.63c-8.11-32.23-9.18-64.6-3.34-97.67 6.39-33.23 18.76-63.77 37.52-92.37 18.76-28.59 41.86-54.03 70.69-75.45 28.83-21.41 61.89-37.76 99.31-48.44 36.33-10.36 72.07-13.65 107.1-10.45 35.02 3.2 66.97 12.93 96.09 27.86 29.13 14.93 54.18 34.8 74.77 60.33 20.59 25.54 35.41 53.97 43.52 86.21 8.41 33.41 8.92 65.93 2.94 98.41-5.98 32.49-18.5 62.44-36.72 90.88-18.36 27.85-41.61 52.7-70.43 74.12-28.68 22-61.33 37.6-97.66 47.96-37.43 10.68-73.58 14.71-108.75 10.93-35.02-3.2-66.82-12.34-96.35-26.53-29.68-14.78-54.59-34.06-75.57-58.85-20.44-24.95-34.71-53.54-43.12-86.95zm2231.39 776.76c-36.28-144.18-71.39-257.92-105.73-340.46-33.94-83.29-66.97-144.22-98.69-183.54-31.72-39.32-61.81-62.77-90.27-70.35-28.31-7-55.39-6.81-81.27.57-31.37 8.95-56.69 25.59-76.48 50.09-19.8 24.5-35.55 50.98-47.41 78.85-11.86 27.89-21.52 55.14-27.88 81.46-6.91 26.47-12.94 47.04-18.4 60.53l288.63 1146.99c3.83 15.24 6.06 33.45 7.11 56.39.91 22.36-4.54 45.27-16.33 68.74-11.8 23.46-32.43 46.94-62.21 69.26-29.09 22.74-72.6 42.07-129.29 58.24-57.25 16.33-103.6 22.02-140.31 16.79-36.57-4.65-65.61-14.57-87.54-29.05-22.48-14.31-38.1-31.85-47.67-51.11-9.57-19.26-15.9-35.04-19.14-47.93l-333.47-1325.17c-8.41-33.41-22.79-60.09-43.29-80.62-21.06-20.37-48.37-25.78-82.5-16.04-18.72 5.34-33.39 12.67-44.28 23.31-11.44 10.8-22.69 24.69-35.01 41.39l-44.34-33.2a960.118 960.118 0 0 1 66.89-88.19c24.96-29.73 53.82-58.07 85.06-83.94 31.1-26.46 66.39-50.35 104.46-72.52 38.23-21.59 79.83-39.11 124.97-51.99 69.9-19.94 127.49-23.19 172.22-9.56 45.28 13.46 80.72 34.76 107.59 64.16 27.27 28.65 47.28 61.27 60.57 97.68 12.59 35.98 22.76 67 29.1 92.2 24.29-72.26 55.71-139.65 94.26-202.15 15.2-26.32 33.3-52.85 53.21-79.26 20.45-26.56 43-51.84 67.64-75.83 24.79-23.4 51.41-44.19 80.98-62.68 29.71-17.89 61.01-31.85 94.03-41.27 73.21-20.89 141.85-24.77 205.52-10.89 64.21 13.71 124.09 50.02 180.72 108.62 56.08 58.76 109.11 142.88 158.38 251.94 49.28 109.07 95.17 249.25 138.09 419.8 41.74 165.87 64.26 313.98 67.01 444.48 2.76 130.5-7.32 245.19-30.78 344.23-23.6 98.44-57.09 183.39-100.22 253.48-43.53 70.84-90 129.96-140.54 177.67-50.13 46.97-100.26 84.52-150.56 112.06-50.44 26.96-94.5 46.44-133.29 58.76l-35.31-65.3c30.41-17.47 57.04-38.26 80.28-63.11 23.1-25.43 41.52-57.7 55.83-96.96 14.16-39.85 23.36-87.7 27.59-143.56 4.93-55.43 3.72-123.56-3.49-203.79-7.21-80.24-20.72-173.75-40.91-279.8-20.9-106.48-48.42-229.92-83.52-369.41zm702.96-441.78c-29.35-116.63-35.75-224.11-19.89-322.86 16.56-98.32 49.31-186.19 98.81-263.76 49.65-76.98 113.3-142.89 190.84-195.79 77.94-53.65 163.43-93.74 257-120.44 93.57-26.7 185.44-39.09 275.74-36.58 90.3 2.5 174.94 22.33 253.05 58.46 12.11-38.63 20.32-78.67 23.84-118.62 3.92-40.69.83-78.76-8.46-115.68-12.09-48.06-33.79-82.7-65.24-104.51-31.44-21.81-65.81-27.08-103.24-16.41l-12.54-49.81c21.6-14.96 40.75-27.96 57.3-39.59 16.54-11.63 32.42-21.19 46.4-28.94 13.98-7.76 28.8-14.5 43.22-20.5 14.42-6 31.33-11.45 49.5-16.63 50.64-14.45 93.3-9.03 128.68 16.68 35.23 25.13 59.94 67.07 74.7 125.68 8.55 34 9.55 70.78 3.09 108.42-6.31 38.24-17.46 75.96-32.22 113.47-14.9 36.92-32.29 73.29-52.88 108.69-20.59 35.39-40.42 66.81-60.02 94.39 59 42.22 110.3 96.05 153.51 162.25 43.2 66.19 76.41 146.55 100 240.32 29.65 117.81 36.63 227.63 21.37 328.72-15.12 101.68-47.83 192.05-96.6 272.55-48.91 79.91-111.98 148.16-188.78 203.99-76.95 55.25-162.14 96.52-255.71 123.22-55.04 15.7-110.31 25.81-165.11 30.77-55.49 4.52-108.72 4.01-159.82-2.14-13.67 18.35-24.26 39.59-31.06 64.14-7.5 24.13-7.8 48.71-1.46 73.91 10.62 42.2 35.65 68.98 75.48 79.6 39.3 10.78 88.67 12.39 148.27 5.44 59.06-6.8 124.93-19.31 197.48-38.12 72.7-18.23 147.49-35.17 224.63-52.16 77.29-16.39 153.56-27.48 229.2-33.98 75.8-5.92 146.09-.85 210.91 15.21 65.5 16.49 122.4 48 170.53 93.94 48.84 46.37 84.19 114.18 106.61 203.26 16.52 65.64 18.61 127.87 5.86 187.41-12.74 59.54-35.92 115.15-69.52 166.83-33.46 52.26-75.69 100.12-125.85 144.58-50.72 44.62-105.51 84.76-165.49 120.71a1461.238 1461.238 0 0 1-185.12 94.28c-63.98 27.05-126.25 49.21-186.25 66.33-109.54 31.25-210.24 53.07-300.71 66.32-90.61 12.67-169.49 15.7-237.48 8.08-67.44-7.77-123.04-27.09-166.09-57.52-43.75-30.86-72.35-74.21-86.37-129.89-10.18-40.44-11.22-79.72-2.01-118.15 8.51-38.86 23.26-76.37 44.8-112.66 21.54-36.3 47.27-70.02 76.75-102.93 30.17-32.48 60.79-63.2 92.8-93.07-60.14-9.22-113.87-32.84-162.44-71.12-48.02-38.44-82.26-97.14-102.46-177.44-10.62-42.2-13.35-83.51-8.73-123.77a470.141 470.141 0 0 1 28.87-115.03c14.5-36.17 31.78-70.63 52.01-102.78 20.22-32.15 40.24-60.48 60.73-84.54-50.96-14.98-100.1-36.77-147.01-66.1-46.76-28.74-89.89-64.18-128.85-106.46-38.96-42.28-73.19-91.56-102.83-148.43-30.06-56.13-53.87-120.31-71.72-191.23zm917.48-276.21c-16.81-66.82-36.34-130.35-58.73-191.17-21.98-61.57-47.55-113.95-75.91-158.63-28.35-44.68-60.4-78.25-96.14-100.72-35.74-22.46-75.35-27.5-119.39-14.93-44.03 12.56-76.38 38.75-96.49 78.41s-31.8 86.97-34.93 142.52c-3.13 55.54-.24 116.28 10.08 183.06 9.62 66.35 22.83 132.94 39.5 199.17 16.96 67.4 37.08 133.27 60.05 196.44 22.43 63.33 48.74 118.64 77.68 165.66 28.94 47.02 61.43 82.35 97.32 105.41 36.04 23.64 76.35 29.1 120.38 16.54 44.04-12.56 75.69-39.19 95.35-80.6 19.67-41.42 30.92-90.48 33.46-148.37 2.54-57.89-.94-120.97-11.55-188.93a2096.642 2096.642 0 0 0-40.68-203.85zm631.65 1466.86c-9.29-36.93-30.02-63.05-62.89-78.8-32.87-15.74-72.82-24.45-119.99-26.7-47.02-1.66-99.37 1.34-156.18 10.01-57.51 8.24-115.13 18.4-172.86 30.47-58.13 12.82-114.75 24.57-169.03 36.29-54.83 11.87-102.65 21.12-143.75 26.57-18.29 23.44-35.59 48.47-51.49 74.37-15.9 25.89-28.76 52.17-38.42 79.43-10.36 26.83-17.12 53.88-20.28 81.17-3.72 27.44-2.47 53.47 3.87 78.68 10.91 43.37 32.17 76.26 63.21 98.81 31.04 22.55 68.72 36.3 113.32 42.42 44.46 5.54 94.34 4.49 149.36-4.29 55.17-8.2 112.19-20.7 171.09-37.5 78.71-22.46 147.39-49.59 205.91-82 58.66-31.81 106.63-66.23 143.37-103.09 36.74-36.87 62.54-75.01 77.14-113.09 14.46-38.67 16.76-76.39 7.62-112.73zm579.77-2403.61c-24.77 7.07-47.56 17.33-67.8 30.65-20.25 13.31-36.71 29.95-50.49 50.21-13.23 20.11-21.43 43.8-25.43 70.07-4.01 26.27-1.48 55.07 6.63 87.31 11.21 44.54 37.28 84.85 79.17 120.01 41.89 35.17 91.37 70.04 149 104.48 57.63 34.44 119.56 69.54 185.78 105.3 65.67 35.92 128.78 75.7 188.63 118.94 59.99 43.81 113.71 93.19 160.21 149.02 46.9 55.09 79.57 119.26 98 192.53 20.8 82.64 26.02 159.67 15.68 231.09-10.2 72.01-34.06 136.61-71.84 195.13-37.63 59.11-87.97 109.91-151.43 153.13-63.45 43.23-137.56 76.94-222.88 101.28-74.31 21.2-144.26 29.22-209.87 24.07-65.6-5.15-126.48-17.31-180.97-36.94-55.04-19.47-103.93-42.59-146.65-69.34-42.32-27.5-76.45-52.94-102.13-77.65l45.37-58.8c18.59 12.91 40.92 26.65 67.41 40.44 26.48 13.8 54.87 25.81 85.57 35.26 30.7 9.46 62.31 15.52 95.39 18.02 32.93 1.91 64.68-.87 96.05-9.82 77.61-22.14 135.9-60.13 175.56-113.53 39.51-53.99 49.53-119.67 29.91-197.61-10.91-43.37-36.03-84.57-74.65-123.19-38.62-38.6-84.15-76.5-137.27-114.11-53.67-37.45-110.54-75.88-171.15-115.12-60.61-39.24-118.36-81.19-173.11-125.24-54.89-44.64-103.61-92.93-144.93-144.59-42.02-52.09-71.26-109.7-87.48-174.17-18.14-72.09-20.17-138.73-6.21-200.5 13.95-61.78 39.07-116.68 75.91-164.89 36.69-48.78 82.35-90.08 136.67-125.05 53.92-34.23 112.26-60.3 174.46-78.04 72.11-20.57 139.38-32.23 202.22-35.71 62.44-2.74 118.24 3.33 167.7 19.37 49.46 16.04 91.34 41.78 125.07 77.39 33.74 35.6 57.69 81.54 71.84 137.8 10.91 43.37 7.29 85.24-11.57 125.17-19 39.34-52.31 66.43-100.74 80.25-46.24 13.19-84.12 12.69-113.8-2.08-29.53-14.19-48.87-39.45-58.16-76.38-6.05-24.03-5.26-44.35 2.9-61.13 7.47-17.21 17.33-31.95 29.57-44.24 11.55-12.72 22.29-23.95 31.82-32.95 9.94-9.74 13.38-19.52 10.72-30.07-8.11-32.23-30.42-52.88-67.61-62.37-36.79-10.24-80.98-7.68-131.07 6.61z" class="fil1 str1"/><path d="M8317.65 9993.47s-50.22-1350.6-1643.94-946.85c-1593.72 403.74-2029.05 538.99-2975.65 244.8 102 387.66 1737.81 730.35 2649.61 91.06 0 0-760.44 627.34-1840.35 475.84 0 0 600.22 593.02 2086.96-334.33 0 0-588.85 642-1281.47 630.22 0 0 738.58 156.18 1490.09-427.13 0 0-272.18 264.24-478.7 399.84 0 0 513.96-138.48 923.7-487.91 409.74-349.43 972.52 70.75 1069.76 354.47z" class="fil2 str0"/><path d="M3677.17 8956.4s978.59 352.43 2140.24 42.09C6211.28 8893.27 6920 8864.03 6920 8864.03s-489.75 68.74-1071.3 239.43c-540.47 158.63-1892.02 352.14-2171.53-147.06zM10678.61 9306s-610.11-1205.99 979.79-1624.53c1589.89-418.54 2036.27-511.03 2722.01-1226.83 98.48 388.57-1166.77 1480.56-2274.1 1362.78 0 0 969.11 180.62 1840.59-474.9 0 0-237.97 809.52-1987.83 718.13 0 0 826.09 276.54 1426.38-69.18 0 0-570.56 494.31-1510.55 347.9 0 0 366.1 99.38 612.45 118.01 0 0-516.74 127.74-1044.44 20.44s-816.61 532.85-764.29 828.18z" class="fil2 str0"/><path d="M14236.44 6151.42s-685.52 782.24-1852.15 1073.27c-395.56 98.67-1029.79 416.3-1029.79 416.3s461.78-177.02 1053.25-309.31c549.68-122.94 1825.9-608.15 1828.7-1180.26zM9869.39 4176.68s139.92 181.32 162.24 202.46c0 0 163.37-39.1 237.81-103.67l-55.12-66.34c-39.05-47.01-188.69-245.99-188.69-245.99l-169.27 153.65 13.02 59.9zm260 322.74a605.74 605.74 0 0 1 15.69 25.32l229.2-117.19-41.84-50.26-203.05 142.13zm69.08 236.63c-15.66 108.4-112.01 215.03-369.49 288.24-313.81 89.22-62.5 385.42-62.5 385.42s-42.1-329.46 145.83-197.92c165.32 115.72 69.6-188.61 291.67-114.58 132.81 44.27.47-291.46 343.75 20.83 95.22 86.63 205.73 52.09 205.73 52.09s210.94 208.33 263.02 31.24c52.08-177.08 197.91 104.17 166.67 187.5-31.25 83.33 161.46-93.75 20.83-250s283.85 355.74 283.85 44.27c0-119.78 179.69 135.42 158.85 239.58 0 0 361.96-208.35-244.79-434.9-126.07-47.07-67.6-158.35-154.9-183.63-250.6-72.55-546.58-14.29-550.83-14.29-1.63 0-59.1-67.92-137.12-161.04-174.33-32.07-295.9 46.7-360.57 107.19z" class="fil2 str0"/><path d="M10146.68 3789.91s613.3 495.46-135.41 708.33c-313.81 89.22-62.5 385.42-62.5 385.42s-42.1-329.46 145.83-197.92c165.32 115.72 69.6-188.61 291.67-114.58 132.81 44.27.47-291.46 343.75 20.83 95.22 86.63 205.73 52.09 205.73 52.09s210.94 208.33 263.02 31.24c52.08-177.08 197.91 104.17 166.67 187.5-31.25 83.33 161.46-93.75 20.83-250s283.85 355.74 283.85 44.27c0-119.78 179.69 135.42 158.85 239.58 0 0 361.96-208.35-244.79-434.9-126.07-47.07-67.6-158.35-154.9-183.63-250.6-72.55-546.58-14.29-550.83-14.29-5.21 0-575.52-687.5-575.52-687.5L10133.66 3730l13.02 59.9z" class="fil2 str0"/><path d="M9852.43 3097.22c3730.8 0 6755.21 3024.41 6755.21 6755.21 0 485.06-51.13 958.17-148.28 1414.25l490.42 798.36c217.65-698.91 334.94-1442.06 334.94-2212.61 0-4104.74-3327.55-7432.29-7432.29-7432.29-2597.09 0-4882.62 1332.38-6211.5 3350.56 339.24-72.17 669.17-57.35 857.94-38.24 1235.17-1602.62 3173.72-2635.23 5353.56-2635.23zM2848.1 7362.32c-276.92 778.44-427.96 1616.61-427.96 2490.11 0 4104.74 3327.55 7432.29 7432.29 7432.29 3152.82 0 5846.86-1963.27 6926.96-4733.86l-764.61 72.99c-1064.03 2362.22-3410.34 3983.79-6162.35 3983.79-3730.8 0-6755.21-3024.41-6755.21-6755.21 0-471.28 48.27-931.29 140.12-1375.35-172.05-291.14-315.06-704.87-389.24-1114.75z" class="fil3 str0"/><path d="M9852.43 1378.47c4680.03 0 8473.96 3793.92 8473.96 8473.95 0 4680.03-3793.92 8473.96-8473.96 8473.96-4680.03 0-8473.95-3793.92-8473.95-8473.96 0-4680.03 3793.92-8473.95 8473.95-8473.95zm0-677.09c-5053.98 0-9151.04 4097.06-9151.04 9151.04 0 5053.98 4097.06 9151.05 9151.04 9151.05 5053.98 0 9151.05-4097.07 9151.05-9151.05S14906.41 701.38 9852.43 701.38z" class="fil3 str0"/><path d="M7789.94 15456.6c1857.28-1420.3 5152.96-2914.17 5152.96-2914.17s20.83 447.92 906.25 98.96c569.75-224.55 643.46-515.92 623.61-695.16 632.96-198.27 1238-325.76 1775.51-343.8l364.58 645.83s-1991.67-519.33-8760.42 3312.5c-171.02 89.14-62.5-104.17-62.5-104.17z" class="fil2 str0"/><g id="_2290306148368"><path d="M8903.69 16046.56c-23.09 14.62-43.17 20.61-60.3 17.85-17.04-2.62-32.25-14.5-45.71-35.76l-331.58-523.89c-8.43 6.32-18.2 14.87-29.87 25.42-11.58 10.69-23.11 22.71-34.56 36.08-11.6 13.45-22.58 27.9-32.88 43.1-10.44 15.29-18.8 30.44-24.9 45.74-6.09 15.3-9.45 30.24-10.22 44.93-.77 14.69 2.84 28.19 10.69 40.57 5.61 8.87 11.11 15.06 16.89 18.89 5.55 3.79 10.72 6.04 15.43 6.61 4.65.8 8.73.39 12.42-.95 3.54-1.26 6.06-2.26 7.47-3.15 6.9-4.37 11.73-9.2 14.67-14.22a121.36 121.36 0 0 0 7.24-15.04c1.97-4.99 3.83-9.53 5.42-13.88 1.81-4.3 4.53-7.8 8.76-10.47 3.24-2.05 7.3-3.43 11.85-4.34 4.78-.86 9.68-.6 15.05.73 5.15 1.28 10.59 3.95 16.23 7.87 5.5 4.02 10.73 9.78 15.63 17.52 6.95 10.98 10.9 21.9 11.67 32.46.85 10.7-.45 20.8-3.82 30.43a80.634 80.634 0 0 1-15.52 26.59c-7.04 8.2-14.83 14.91-23.42 20.34-13.09 8.29-26.49 13.61-39.91 15.79-13.41 2.18-26.44 1.55-38.98-1.76-12.46-3.17-24.06-9.03-34.64-17.33-10.57-8.3-19.77-18.46-27.43-30.57-20.32-32.11-29.1-65.61-26.24-100.35 2.86-34.75 14.69-69.66 35.73-104.67 21.04-35.01 49.64-69.29 85.89-102.69 36.26-33.4 77.74-64.78 124.5-94.38 22.39-14.17 44.26-27.61 65.56-40.7 21.53-13.04 41.27-24.54 59.27-34.75s33.6-18.9 46.99-25.8c13.24-6.81 23.34-11.43 30.01-13.67 6.29-2.21 11.91-3 16.98-2.46 4.93.62 9.34 1.98 12.94 4.24 3.74 2.17 7.09 4.98 10.06 8.43 2.88 3.3 5.57 6.93 7.98 10.73 1.96 3.1 3.77 6.89 5.42 11.36 1.65 4.48 2.79 9.09 3.56 13.72.54 4.59.3 8.89-.49 12.94-.93 4.14-3.17 7.14-6.84 9.45-2.11 1.34-5.04 2.01-8.54 1.46-3.64-.46-8.31-.66-14.18-.89-5.77-.09-13.46.24-22.72 1.17-9.36.8-20.57 3.35-33.94 7.47-13.28 4.26-29.14 10.36-47.27 18.48-18.22 7.98-39.43 19.04-63.54 33.31l332.12 524.73c13.46 21.26 17.69 40.09 12.76 56.62-4.83 16.67-18.7 32.15-41.66 46.69zm196.4-395.56c5.48 8.96 12.67 17.84 21.71 26.58 9.05 8.72 19.17 16.99 30.72 24.39 11.41 7.48 23.7 13.84 36.91 18.85 13.31 5.15 26.91 8.56 41.19 10.18 14.05 1.57 28.37 1.03 42.81-1.55 14.36-2.72 28.55-8.26 42.34-16.7 9.81-6 18.07-12.61 25.07-20.01 6.86-7.31 12.85-15.08 17.76-23.35 4.68-8.33 8.95-17 12.42-26.34 3.56-9.2 6.94-18.69 10.06-28.61l16.47 3.61c-1.1 12.58-3.47 26.93-7.31 43.33-3.7 16.32-9.87 33.38-18.53 51.17-8.61 17.56-20.64 35.27-35.76 52.72-15.26 17.53-34.91 33.64-59.09 48.42-24.18 14.78-50.48 24.79-78.68 30.11-28.28 5.17-56.61 4.52-85.08-2.11-28.46-6.63-56.07-19.84-82.64-39.35-26.8-19.56-50.75-46.92-72.13-81.91-15.39-25.17-26.43-50.26-32.97-75.37-6.46-24.96-9.44-49.31-8.83-72.93.61-23.62 4.28-46.37 11.11-68.12 6.68-21.67 15.61-41.57 26.46-59.93 11.09-18.3 23.53-34.69 37.76-49.44 14.17-14.52 29.08-26.56 44.58-36.04 20.62-12.6 39.79-21.19 57.84-26.17 17.91-4.89 34.36-6.74 49.06-5.37 14.7 1.37 27.54 5.43 38.66 12.12 10.98 6.77 19.74 15.67 26.34 26.48 8 13.08 11.43 27 10.32 42.13-1.05 14.91-5.58 30.18-13.32 45.65l-105.26 197.55zm32.05-135.81c2.26-4.31 3.94-8.26 5.05-11.87 1.12-3.61 1.49-7.15 1.09-11.01-.46-3.63-1.58-8.02-3.62-12.63-1.9-4.7-4.78-10.36-8.69-16.76-4.17-6.83-9.81-14.13-16.35-21.65-6.78-7.57-14.21-13.98-22.51-19.26-8.07-5.22-16.45-8.7-25.04-10.28-8.67-1.73-16.84-.06-24.66 4.72-9.96 6.09-16.67 14.29-20.12 24.6-3.46 10.32-4.6 21.56-3.41 33.73 1.27 12.31 4.09 25.24 8.92 38.89 4.69 13.74 10.17 27.19 16.22 40.28 6.19 13.02 12.47 25.2 19.05 36.61s12.26 21.02 17.04 28.85l57.03-104.2zm432.56-177.5c-4.09-6.88-9.62-10.96-16.19-11.9-6.71-.86-13.55.68-20.43 4.77-9.89 5.87-17.84 13.7-23.94 23.33-6.25 9.72-10.07 20.91-11.61 33.65-1.63 12.6-.54 26.49 3.16 41.55 3.56 15.13 10.47 31 20.43 47.76 9.62 16.19 18.77 28.98 27.5 38.13 8.59 9.24 16.91 15.74 24.67 19.66 7.76 3.93 15.13 5.56 21.96 4.98 6.75-.71 13.11-2.74 18.98-6.23 7.31-4.34 13.08-10.29 17.23-17.99 4.23-7.56 6.93-15.75 8.17-24.43 1.24-8.69 1.19-17.57-.34-26.36-1.48-9.01-4.39-17.17-8.73-24.48l-60.86-102.45zm-175.99-144.17c-9.6 5.7-17.66 12.04-24.46 19.19-6.75 6.92-12.06 13.96-15.98 20.74-3.83 6.93-6.2 13.37-7.26 19.43-.91 5.97-.33 10.86 1.8 14.44 2.55 4.3 6.49 6.03 11.81 5.2 5.55-.78 11.56-1.43 18.22-2.3 6.75-.71 13.57-.31 20.52 1.58 7 1.66 13.06 6.97 18.43 16 3.49 5.87 5.49 11.86 6.04 18.32.46 6.31-.14 12.49-1.94 18.6-1.86 6.34-4.89 12.01-9.05 17.39-4.17 5.38-9.3 9.79-15.18 13.28-15.61 9.28-31.38 11.47-47.42 6.65-15.99-5.04-29.2-16.19-39.67-33.81-10.13-17.06-14.37-34.31-12.58-51.85 1.65-17.46 7.44-34.47 17.09-50.87 9.79-16.47 22.72-31.91 38.62-46.59 15.99-14.53 33.07-27.21 51.28-38.02 21.78-12.94 44-22.85 66.73-29.95 22.72-7.1 44.72-9.89 66.18-8.69 21.31 1.29 41.33 7.24 59.95 17.69 18.56 10.69 34.55 27.16 48.08 49.94l140.89 237.14c1.53 2.58 3.3 5.22 5.45 8.2 2.07 2.84 4.5 5.28 6.94 7.12 2.68 1.9 5.59 2.88 8.9 3.24 3.17.44 6.98-.66 11.13-3.12 5.02-2.98 8.55-7.8 10.64-14.08s3.66-12.44 4.71-18.5l15.74 2.67c-.67 8.35-1.85 17.77-3.56 28.28a138.414 138.414 0 0 1-9.83 32.4c-4.79 11.18-11.39 22.27-20.09 33.07s-20.19 20.52-34.51 29.04c-17.62 10.47-36.39 14.44-56.36 12.16-19.83-2.37-38.47-13.2-55.57-32.52-1.87 17.4-5.22 32.96-9.98 46.84-4.83 13.72-10.8 26.19-18 37.25-7.05 10.97-15.01 20.74-23.9 28.94a163.108 163.108 0 0 1-28.77 21.74c-13.47 8-27.78 13.6-42.86 16.93-15.08 3.33-30.26 3.24-45.65.17-15.33-3.3-30.34-10.28-45.04-21.32-14.61-10.9-28.18-26.87-40.69-47.94-15.15-25.5-22.34-49.35-21.93-71.49.33-22.3 5.56-43.82 15.34-64.56 9.78-20.74 22.8-41.26 38.89-61.48 16.33-20.17 32.74-41.16 49.33-62.84 12.36-16.07 18.63-32.59 18.51-49.77-.13-17.18-4.29-32.34-12.29-45.81-12.35-20.78-28.24-33.82-47.74-38.91-19.59-5.23-39.95-1.66-60.87 10.77zm447.18-262.35c-6.5 3.75-12.2 8.2-16.98 13.27-4.77 5.06-8.24 10.72-10.69 17.15-2.31 6.33-2.94 13.24-2.2 20.52.74 7.28 3.5 14.72 8.08 22.66 6.33 10.97 16.57 19.69 30.9 25.85 14.33 6.16 30.8 11.67 49.52 16.44 18.73 4.77 38.72 9.39 59.97 13.87 21.11 4.56 41.76 10.33 61.74 17.27 20.07 7.08 38.75 16.11 55.86 27.41 17.17 11.06 30.96 25.62 41.38 43.66 11.75 20.35 18.7 40.39 20.86 60.12 2.24 19.88.09 38.82-6.42 57.21-6.43 18.53-17.04 35.82-31.89 52.09-14.85 16.28-33.39 30.83-55.76 43.75-19.49 11.25-38.68 18.67-57.58 22.28-18.9 3.6-36.96 4.98-53.75 3.9-16.93-1-32.39-3.43-46.36-7.3-13.91-4.09-25.36-8.26-34.37-12.87l8.64-19.04c6.17 2.02 13.45 3.97 21.92 5.63 8.46 1.66 17.33 2.69 26.68 2.88 9.35.19 18.71-.6 28.23-2.44 9.44-1.98 18.2-5.13 26.43-9.88 20.35-11.75 34.12-26.24 41.52-43.41 7.32-17.31 5.48-35.5-5.6-54.7-6.17-10.68-16.19-19.71-29.85-27.02-13.66-7.32-29.22-13.93-46.89-19.89-17.83-5.87-36.63-11.76-56.54-17.58a610.896 610.896 0 0 1-57.81-20.12c-18.68-7.69-35.88-16.81-51.23-27.39-15.57-10.64-27.93-23.71-37.1-39.59-10.25-17.76-15.56-35.28-16.01-52.72-.45-17.45 2.74-33.92 9.72-49.5 6.89-15.72 16.85-30.13 29.72-43.53 12.8-13.16 27.43-24.5 43.73-33.91 18.91-10.92 37.08-19.11 54.59-24.78 17.44-5.45 33.64-8.07 48.75-7.56 15.11.51 28.77 4.17 40.83 11.06 12.06 6.89 22.09 17.26 30.1 31.12 6.17 10.68 8.12 22.06 5.63 34.08-2.57 11.88-10.05 21.59-22.75 28.92-12.12 7-22.86 9.74-32.3 8.06-9.35-1.53-16.61-6.77-21.86-15.86-3.42-5.92-4.64-11.37-3.53-16.44.89-5.13 2.62-9.79 5.21-13.98 2.36-4.25 4.59-8.04 6.65-11.15 2.11-3.33 2.39-6.19.89-8.79-4.58-7.94-12.35-11.73-23.54-11.43-11.12.07-23.43 4.09-36.56 11.68zm427.89 37.65c5.1 9.18 11.91 18.35 20.59 27.46 8.68 9.1 18.45 17.78 29.69 25.65 11.09 7.95 23.1 14.81 36.1 20.37 13.08 5.7 26.53 9.67 40.72 11.89 13.98 2.15 28.3 2.2 42.83.23 14.46-2.11 28.87-7.07 43-14.92 10.06-5.58 18.59-11.85 25.89-18.95 7.16-7.02 13.47-14.54 18.72-22.59 5.02-8.13 9.65-16.61 13.51-25.8 3.93-9.05 7.7-18.39 11.24-28.17l16.3 4.3c-1.62 12.53-4.58 26.76-9.1 42.99-4.37 16.16-11.25 32.94-20.65 50.36-9.33 17.19-22.09 34.38-37.92 51.19-15.98 16.88-36.28 32.16-61.05 45.92-24.77 13.76-51.47 22.67-79.86 26.81-28.47 3.99-56.75 2.16-84.92-5.65-28.17-7.81-55.2-22.15-80.94-42.75-25.96-20.66-48.75-48.99-68.66-84.83-14.32-25.79-24.31-51.31-29.81-76.67-5.42-25.2-7.37-49.67-5.78-73.23 1.59-23.57 6.2-46.15 13.93-67.6 7.58-21.37 17.33-40.89 28.94-58.78 11.83-17.82 24.95-33.68 39.78-47.83 14.76-13.92 30.16-25.33 46.04-34.15 21.13-11.73 40.64-19.51 58.88-23.74 18.1-4.15 34.61-5.31 49.24-3.33 14.63 1.98 27.29 6.57 38.12 13.72 10.69 7.22 19.07 16.48 25.22 27.56 7.44 13.4 10.3 27.46 8.56 42.52-1.67 14.85-6.83 29.92-15.2 45.05l-113.39 193zm37.67-134.36c2.43-4.21 4.28-8.09 5.54-11.65 1.26-3.56 1.78-7.09 1.54-10.96-.31-3.64-1.25-8.08-3.09-12.78-1.7-4.77-4.34-10.55-7.98-17.11-3.89-7-9.21-14.52-15.44-22.31-6.46-7.85-13.61-14.56-21.69-20.18-7.85-5.55-16.07-9.37-24.59-11.31-8.59-2.09-16.82-.76-24.83 3.69-10.2 5.67-17.24 13.58-21.13 23.74-3.89 10.17-5.5 21.35-4.81 33.56.76 12.35 3.04 25.39 7.3 39.23 4.11 13.92 9.03 27.59 14.53 40.92 5.65 13.26 11.41 25.69 17.51 37.37 6.1 11.67 11.38 21.51 15.83 29.53l61.32-101.74zm706.55-501.5c27.89 52.56 49.91 106.16 65.61 160.65 15.85 54.42 26.09 107.85 30.93 160.37 4.85 52.52 4.35 103.16-1.56 151.76-5.91 48.6-16.69 93.37-32.33 133.94-15.57 40.71-35.87 76.76-60.62 108-24.89 31.31-53.91 55.58-87.03 73.15-25.33 13.44-47.09 19.7-65.31 18.43-18.37-1.2-31.31-8.86-38.96-23.29a54.978 54.978 0 0 1-5.78-17.31c-1.11-6.02-1.26-11.98-.42-17.52.69-5.46 2.5-10.57 5.15-15.19 2.65-4.61 6.44-8.13 11-10.55 5.45-2.89 11.5-2.52 17.92 1.06 6.42 3.57 13.37 7.43 20.93 11.72 7.41 4.37 15.47 7.83 24.11 10.23 8.63 2.4 18.06.98 28.08-4.33 12.95-6.87 25.33-16.27 37.04-28.33 11.79-11.92 22.49-25.89 32.25-41.63 9.83-15.97 18.72-33.7 26.53-53.13 7.96-19.5 14.91-40.17 20.94-62.24-23.48-24.7-49.56-51.44-78.28-80.35-28.65-28.76-58.05-57.5-88.11-86.08-30.29-28.65-60.03-55.89-89.35-81.65-29.4-25.91-56.56-48.29-81.47-67.15-24.91-18.86-46.72-32.95-65.52-42.41-18.86-9.24-32.41-11.67-40.66-7.3-5.45 2.89-9.33 5.89-11.48 9.3-2.01 3.33-4.21 7.7-6.55 12.91l-14.39-6.14c3.17-7.91 6.47-16.26 10.06-24.77 3.6-8.51 8.61-17.21 14.88-26.01 6.34-9.02 14.48-17.87 24.7-26.69 10-8.89 22.99-17.48 39.19-26.07 17.52-9.3 35.97-13.99 55.21-14 19.3-.24 40.73 7.07 64.42 21.86 17.34 10.99 36.69 25.06 58.06 42.21 21.29 17.01 44.13 36.59 68.52 58.74 24.17 22.09 49.73 46.44 76.47 73.01 26.8 26.35 54.47 54.31 82.99 83.89-2.02-46.85-8.61-94.11-19.89-141.7-11.29-47.59-28.72-93.62-52.24-137.94-8.36-15.75-16.43-28.83-24.42-38.93-8-10.1-15.28-18.5-22.15-25.04-6.87-6.54-12.67-12.15-17.7-16.65-5.03-4.5-8.49-8.89-10.83-13.31-2.26-4.27-2.6-8.81-.63-13.63 1.75-4.89 4.77-9.51 8.69-13.85 4-4.2 8.3-8.18 12.91-11.57 4.62-3.39 8.73-5.95 12.12-7.75 7.8-4.14 14.55-5.65 20.46-4.82 5.84 1.05 11.28 3.83 16.46 8.63 5.11 5.02 10.04 11.46 14.78 19.7 4.67 8.09 9.81 17.43 15.28 27.74zm142.46 130.02c-19.2-38.1-30.5-74.22-33.88-108.34-3.46-34.28-.73-65.52 8.06-94.02 8.78-28.5 22.94-53.74 42.69-75.64 19.54-21.98 42.59-39.57 69.38-53.07 26.79-13.5 54.64-21.93 83.47-25.45 28.91-3.37 57.17-.63 84.85 8.38 27.68 9.01 54.11 24.8 79.3 47.38 25.27 22.35 47.5 52.77 66.85 91.17 19.2 38.11 30.65 74.52 34.33 109.61 3.76 34.87 1.48 67-6.85 96.4-8.41 29.24-22.11 55.37-41.35 77.94-19.23 22.57-42.2 40.68-69 54.18-26.79 13.5-54.72 21.41-84 24.04-29.51 2.55-58.22-1.08-86.35-10.98-28.13-9.9-54.94-26.44-80.43-49.61-25.57-23.33-47.87-53.89-67.07-91.99zm265.88-139.4c-11.78-23.37-23.77-45.31-36.35-66.22-12.37-20.83-25.24-38.6-38.48-53.02-13.09-14.5-26.61-24.66-40.27-30.28-13.89-5.7-27.82-4.83-42.11 2.37s-23.13 18.19-26.35 33.25c-3.46 14.99-3.11 32.36.98 51.94 4.09 19.59 10.93 40.96 20.55 63.74 9.76 22.7 20.49 45.85 32.19 69.07 11.7 23.22 23.92 45.61 36.44 67.12 12.74 21.57 25.84 39.8 39.23 54.88 13.46 15.24 27.21 25.85 41.32 32 13.96 6.22 28.12 5.8 42.41-1.4 14.29-7.2 22.97-18.48 26.2-33.92 3.01-15.51 2.43-33.32-2.03-53.66-4.31-20.41-11.46-42.37-21.37-65.74-9.84-23.59-20.65-46.89-32.35-70.11zm681.5-140.95c1.28 2.71 2.78 5.5 4.51 8.37 1.8 3.02 3.9 5.53 6.31 7.89 2.56 2.29 5.44 3.7 8.48 4.29 3.26.67 7.16-.07 11.53-2.13 5.57-2.64 9.62-6.95 12.07-13.08 2.67-6.05 4.81-12.04 6.81-17.96l14.89 4.2c-1.45 8.24-3.75 17.81-6.81 28.48-3.14 10.52-7.7 21.52-13.99 32.79-6.14 11.2-14.2 21.83-24.27 32.12-9.84 10.37-22.33 19.04-37.7 26.31-12.96 6.13-25.04 9.81-36.18 10.83-11.21 1.24-21.4.35-30.74-2.24-9.33-2.59-17.51-7.02-24.31-13.21-7.02-6.27-12.59-13.77-16.8-22.66l-9.4-19.89c-7.07 22.88-16.04 44.08-26.39 63.91-4.59 8.62-9.7 17.3-15.34 26.05a225.638 225.638 0 0 1-18.37 25.09c-6.52 8.06-13.91 15.43-22.04 22.03-7.9 6.68-16.52 12.23-25.56 16.51-17.63 8.33-34.19 12.29-49.69 11.87-15.5-.41-29.51-3.93-42.11-10.7-12.52-6.61-23.59-15.58-33.18-26.9-9.74-11.25-17.68-23.35-23.8-36.31l-129.14-273.18c-1.28-2.71-2.79-5.5-4.58-8.52-1.58-2.94-3.76-5.6-6.24-7.74-2.56-2.29-5.43-3.7-8.48-4.29-3.26-.67-7 0-11.52 2.13-5.28 2.49-9.32 6.8-11.99 12.85-2.59 6.2-4.74 12.2-6.28 17.91l-15.49-3.92c1.53-8.46 3.75-17.81 6.81-28.48 3.07-10.67 7.71-21.53 14-32.8 6.14-11.19 14.35-21.9 24.35-32.34 10.07-10.29 22.71-19.04 37.63-26.09 12.96-6.13 25.04-9.81 36.48-10.97 11.21-1.24 21.48-.57 30.67 2.09 9.26 2.81 17.21 7.16 24.23 13.43 6.87 6.34 12.44 13.84 16.65 22.73l139.4 294.88c1.93 4.07 4.52 8 7.87 11.58 3.43 3.73 7.01 6.64 11.28 9.05 4.2 2.26 8.72 3.62 13.56 4.1 4.83.48 10-.68 15.28-3.17 8.59-4.06 15.96-10.31 22.48-18.74 6.37-8.36 11.71-17.34 15.94-26.71 4.23-9.37 7.41-18.25 9.91-26.62 2.34-8.3 4.05-14.45 4.95-18.38l-121.87-257.81c-1.28-2.71-2.79-5.5-4.58-8.53-1.58-2.94-3.76-5.6-6.24-7.74-2.56-2.29-5.44-3.7-8.48-4.29-3.26-.67-7-.01-11.53 2.13-5.27 2.49-9.32 6.8-11.99 12.86-2.6 6.2-4.74 12.2-6.28 17.9l-15.5-3.92c1.53-8.46 3.75-17.81 6.81-28.48 3.07-10.67 7.71-21.52 14-32.8 6.13-11.19 14.35-21.9 24.34-32.34 10.07-10.29 22.72-19.04 37.63-26.09 12.95-6.13 25.04-9.81 36.47-10.97 11.21-1.24 21.48-.57 30.67 2.09 9.26 2.81 17.21 7.16 24.23 13.43 6.87 6.33 12.44 13.84 16.65 22.73l150.01 317.33zm129.43-409.21c3.53-22.23 8.5-43.29 15.06-62.86 2.59-8.47 5.77-16.84 9.47-25.27 3.7-8.43 7.99-16.39 12.69-23.8 4.64-7.57 9.91-14.14 15.83-20.09 5.98-5.8 12.51-10.37 19.66-13.59 15.05-6.76 28.96-7.53 41.65-2.45 12.76 5.22 22.69 15.93 30.07 32.35 4.51 10.04 8.12 20.11 10.69 30.28 2.49 10.03 4.43 22.86 5.72 38.35l-12.47 5.61c-5.99-8.45-13.51-14.21-22.78-17.35-9.27-3.14-20.21-1.88-32.68 3.72a80.224 80.224 0 0 0-24.74 17.33c-7.46 7.38-14.22 15.53-20.48 24.37-6.11 8.78-11.7 17.87-16.64 27.21-4.87 9.5-9.18 18.2-13.02 26.32l129.87 288.99c1.78 3.96 3.22 8.79 4.39 14.65 1.18 5.87.54 12.19-1.83 19.1-2.44 6.76-7.44 13.94-15.06 21.38-7.4 7.53-19.11 14.8-34.77 21.84-15.81 7.1-28.94 10.81-39.77 11.11-10.76.45-19.58-.88-26.55-3.78-7.12-2.83-12.4-6.85-16-11.63-3.61-4.77-6.13-8.76-7.63-12.1l-154.46-343.72c-3.89-8.67-9.22-15.22-16.04-19.83-6.97-4.54-15.1-4.72-24.52-.49-5.17 2.32-9.08 4.99-11.76 8.39-2.83 3.46-5.47 7.75-8.29 12.86l-14.26-6.93c4.31-8.7 9.39-17.74 15.44-27.04 5.9-9.23 12.99-18.26 20.87-26.74 7.82-8.63 16.96-16.76 26.98-24.55 10.09-7.64 21.33-14.34 33.8-19.94 12.77-5.74 24.47-8.98 35.16-9.58 10.47-.69 19.9.37 28.2 3.4 8.24 2.88 15.53 6.91 21.8 12.31 6.42 5.34 11.93 11.08 16.74 17.33 4.81 6.24 8.74 12.52 11.91 18.77s5.78 11.65 7.76 16.06zm877.8 74.79c-25.28 10.39-46.09 12.81-62.48 7.11-16.33-5.54-29.25-19.88-38.81-43.15l-235.61-573.49c-9.4 4.76-20.5 11.49-33.83 19.85-13.26 8.51-26.69 18.35-40.3 29.53-13.76 11.24-27.08 23.56-39.87 36.74-12.94 13.24-23.8 26.71-32.46 40.72-8.66 14.01-14.56 28.15-17.86 42.48-3.3 14.33-2.09 28.25 3.48 41.81 3.99 9.71 8.33 16.76 13.36 21.54 4.81 4.69 9.51 7.81 14.04 9.19 4.44 1.6 8.53 1.9 12.39 1.22 3.7-.62 6.36-1.17 7.91-1.81 7.55-3.1 13.15-7.02 16.92-11.45 3.85-4.65 7.03-9.2 9.74-13.56 2.81-4.57 5.43-8.72 7.74-12.73 2.53-3.93 5.81-6.9 10.44-8.8 3.55-1.46 7.78-2.11 12.42-2.22 4.86-.02 9.64 1.09 14.7 3.33 4.85 2.15 9.74 5.72 14.61 10.57 4.72 4.91 8.87 11.5 12.35 19.97 4.94 12.02 6.93 23.46 5.85 33.99-1.02 10.69-4.05 20.41-9.04 29.31a80.574 80.574 0 0 1-19.9 23.49c-8.35 6.85-17.19 12.11-26.59 15.97-14.33 5.89-28.45 8.81-42.04 8.62-13.59-.18-26.31-3.06-38.08-8.49-11.72-5.28-22.13-13.07-31.11-23.08-8.97-10-16.26-21.61-21.71-34.86-14.44-35.15-17.27-69.67-8.42-103.39s26.56-66.05 53.35-96.87c26.8-30.83 60.91-59.62 102.42-86.22 41.5-26.6 87.8-50.31 138.99-71.33 24.51-10.07 48.38-19.51 71.63-28.71 23.47-9.1 44.91-17 64.4-23.93 19.5-6.93 36.37-12.78 50.76-17.25 14.23-4.41 24.97-7.2 31.93-8.25 6.58-1.08 12.24-.89 17.15.52 4.75 1.47 8.85 3.57 12 6.42 3.31 2.78 6.13 6.13 8.45 10.04 2.27 3.75 4.28 7.79 5.99 11.95 1.39 3.39 2.52 7.44 3.36 12.13.85 4.7 1.17 9.43 1.13 14.13-.27 4.62-1.25 8.8-2.73 12.66-1.63 3.91-4.37 6.48-8.37 8.12-2.31.95-5.31 1.1-8.67-.04-3.51-1.09-8.07-2.09-13.8-3.34-5.67-1.09-13.3-2.1-22.59-2.79-9.36-.84-20.84-.27-34.72 1.47-13.82 1.89-30.5 5.14-49.77 10-19.33 4.7-42.13 11.91-68.35 21.78l235.98 574.41c9.56 23.28 10.46 42.55 2.74 57.97-7.65 15.58-24 28.42-49.13 38.75zM13218.98 13527.39c-14.54-40.11-21.48-77.31-20.79-111.6.63-34.44 7.04-65.14 19.15-92.4 12.1-27.26 29.15-50.64 51.36-70.04 22-19.5 46.98-34.24 75.18-44.46 28.2-10.23 56.85-15.3 85.91-15.37 29.1.08 56.83 6.16 83.26 18.38 26.41 12.23 50.79 31.04 73.13 56.45 22.43 25.19 40.9 58.03 55.56 98.45 14.55 40.11 21.59 77.63 21.09 112.91-.4 35.07-6.48 66.7-18.24 94.9-11.81 28.04-28.53 52.37-50.3 72.49-21.78 20.13-46.73 35.39-74.94 45.62-28.2 10.23-56.87 14.78-86.26 13.91-29.6-.96-57.68-7.98-84.43-21.15-26.76-13.17-51.42-32.77-73.98-58.8-22.62-26.19-41.15-59.19-55.69-99.3zm280.54-106.88c-8.92-24.6-18.23-47.81-28.25-70.07-9.81-22.15-20.48-41.32-31.92-57.21-11.28-15.94-23.5-27.65-36.39-34.85-13.11-7.3-27.05-8.1-42.09-2.64-15.04 5.45-25.11 15.31-30.11 29.89-5.21 14.47-6.92 31.76-5.19 51.69 1.73 19.94 6 41.97 12.84 65.73 7 23.7 14.91 47.96 23.77 72.4 8.87 24.44 18.34 48.13 28.22 70.97 10.09 22.93 20.94 42.57 32.44 59.15 11.56 16.72 23.95 28.9 37.23 36.67 13.12 7.83 27.23 9.09 42.28 3.64 15.04-5.45 25-15.62 30.04-30.57 4.83-15.05 6.37-32.8 4.35-53.52-1.86-20.78-6.36-43.44-13.43-67.82-6.97-24.59-14.94-49.01-23.8-73.45zm519.86-158.86c-11.92-39.23-23.22-70.11-34.01-92.44-10.68-22.54-20.89-38.94-30.52-49.43-9.63-10.49-18.64-16.63-27.03-18.44-8.34-1.65-16.26-1.33-23.75.95-9.09 2.76-16.33 7.57-21.9 14.49-5.56 6.92-9.93 14.33-13.14 22.11-3.22 7.77-5.79 15.35-7.41 22.63-1.78 7.33-3.35 13.04-4.83 16.8l94.83 312.07c1.26 4.15 2.07 9.13 2.59 15.41.47 6.13-.91 12.47-4.15 19.03-3.24 6.56-9.06 13.2-17.56 19.62-8.3 6.53-20.84 12.26-37.26 17.25-16.58 5.04-30.08 7.05-40.86 5.97-10.73-.92-19.31-3.36-25.86-7.12-6.7-3.71-11.43-8.37-14.4-13.57-2.97-5.19-4.96-9.46-6.03-12.97l-109.56-360.56c-2.76-9.09-7.21-16.27-13.39-21.71-6.34-5.39-14.38-6.61-24.26-3.6-5.42 1.65-9.64 3.8-12.73 6.83-3.25 3.08-6.41 7-9.86 11.7l-13.26-8.68c5.38-8.08 11.56-16.41 18.75-24.86 7.03-8.41 15.2-16.46 24.1-23.87 8.85-7.57 18.95-14.47 29.88-20.93 10.97-6.3 22.98-11.51 36.06-15.49 20.25-6.15 37.06-7.6 50.25-4.3 13.36 3.26 23.91 8.76 32.04 16.57 8.23 7.6 14.38 16.36 18.59 26.22 4.01 9.76 7.27 18.17 9.35 25.03 6.44-20.07 15.01-38.88 25.71-56.41 4.2-7.37 9.25-14.83 14.83-22.28 5.74-7.49 12.1-14.65 19.08-21.47 7.03-6.67 14.63-12.63 23.1-18 8.52-5.2 17.54-9.34 27.11-12.24 21.21-6.44 41.24-8.17 59.97-4.98 18.9 3.14 36.73 12.53 53.82 28.07 16.93 15.58 33.2 38.16 48.6 67.62 15.39 29.46 30.09 67.5 44.19 113.91 13.72 45.13 21.65 85.57 23.65 121.37 2 35.8.09 67.38-5.86 94.8-6 27.26-15.01 50.9-26.98 70.56-12.08 19.87-25.13 36.55-39.46 50.14-14.22 13.38-28.54 24.18-42.99 32.22-14.5 7.89-27.2 13.67-38.43 17.43l-10.91-17.59c8.72-5.09 16.32-11.06 22.89-18.1 6.52-7.2 11.61-16.25 15.43-27.16 3.78-11.07 6.03-24.3 6.76-39.68.94-15.27-.04-33.96-2.88-55.91-2.84-21.96-7.64-47.5-14.51-76.42-7.08-29.02-16.25-62.65-27.78-100.6zm222.5-137.61c-7.28-32.36-7.96-61.93-2.23-88.85 5.93-26.79 16.47-50.52 31.8-71.22 15.36-20.54 34.69-37.87 57.94-51.48 23.37-13.8 48.8-23.8 76.44-30.02 27.64-6.22 54.62-8.54 80.99-6.78 26.36 1.76 50.87 8.19 73.3 19.03 3.96-10.46 6.81-21.35 8.28-32.27 1.59-11.12 1.11-21.61-1.19-31.85-3-13.33-8.96-23.09-17.91-29.45-8.95-6.36-18.94-8.21-29.99-5.72l-3.11-13.82c6.48-3.85 12.22-7.19 17.18-10.19 4.96-3 9.71-5.44 13.88-7.4s8.57-3.64 12.85-5.11c4.28-1.48 9.29-2.78 14.65-3.98 14.96-3.37 27.37-1.38 37.42 6.09 10.02 7.31 16.78 19.12 20.43 35.38 2.12 9.43 2.01 19.54-.3 29.79-2.26 10.42-5.94 20.64-10.67 30.76-4.76 9.96-10.25 19.73-16.66 29.2-6.41 9.48-12.55 17.86-18.58 25.2 16.77 12.28 31.17 27.67 43.06 46.34 11.89 18.68 20.7 41.13 26.56 67.14 7.36 32.68 8.18 62.91 2.6 90.47-5.54 27.73-16.11 52.14-31.25 73.66-15.18 21.36-34.37 39.34-57.43 53.76-23.1 14.26-48.45 24.57-76.09 30.8a277.82 277.82 0 0 1-48.59 6.5c-16.27.59-31.82-.18-46.69-2.47-4.2 4.87-7.52 10.57-9.78 17.23-2.46 6.54-2.82 13.28-1.25 20.27 2.63 11.7 9.65 19.35 21.18 22.74 11.36 3.43 25.77 4.45 43.27 3.24 17.33-1.17 36.72-3.82 58.13-8.13 21.44-4.15 43.49-7.91 66.22-11.67 22.77-3.59 45.18-5.72 67.35-6.62 22.22-.73 42.7 1.49 61.46 6.66 18.96 5.3 35.24 14.62 48.8 27.8 13.76 13.3 23.34 32.33 28.91 57.04 4.1 18.21 4.02 35.31-.37 51.5-4.38 16.19-11.77 31.18-22.17 44.96-10.35 13.95-23.23 26.59-38.38 38.2-15.31 11.65-31.78 22.02-49.7 31.18-17.76 9.13-36.15 17.02-55.15 23.69-19 6.67-37.44 12.02-55.17 16.01-32.35 7.28-62.02 12.08-88.61 14.65-26.62 2.41-49.71 2.31-69.49-.58-19.62-2.93-35.65-8.89-47.9-17.75-12.44-8.98-20.32-21.22-23.8-36.67-2.52-11.22-2.39-22.01.72-32.45 2.92-10.56 7.65-20.69 14.35-30.39 6.7-9.7 14.59-18.66 23.57-27.34a514.49 514.49 0 0 1 28.15-24.44c-17.47-3.24-32.91-10.36-46.68-21.44-13.61-11.11-22.96-27.63-27.98-49.91-2.63-11.7-2.98-23.08-1.18-34.07 1.83-10.84 5.11-21.31 9.71-31.23 4.64-9.76 10.07-19.01 16.34-27.59 6.27-8.59 12.43-16.13 18.69-22.48-14.73-4.72-28.85-11.28-42.23-19.88-13.35-8.44-25.56-18.67-36.48-30.74-10.92-12.06-20.37-25.99-28.41-41.95-8.16-15.76-14.41-33.66-18.84-53.33zm271.18-64.98c-4.17-18.54-9.17-36.2-15.04-53.16-5.74-17.16-12.63-31.84-20.43-44.43-7.79-12.6-16.78-22.19-26.98-28.78-10.19-6.59-21.71-8.44-34.72-5.51-13.01 2.93-22.75 9.74-29.07 20.38-6.31 10.65-10.26 23.49-11.79 38.7-1.53 15.2-1.35 31.91.92 50.36 2.08 18.33 5.2 36.76 9.34 55.13 4.21 18.7 9.36 37.02 15.37 54.62 5.85 17.65 12.93 33.14 20.86 46.39 7.94 13.24 17.04 23.33 27.27 30.07 10.27 6.91 21.99 8.89 35 5.96 13.01-2.93 22.55-9.86 28.76-21 6.2-11.13 10.04-24.46 11.42-40.33 1.39-15.86 1.07-33.21-1.28-51.99a544.18 544.18 0 0 0-9.63-56.43zm168.33 410.04c-2.31-10.24-8.07-17.66-17.51-22.37-9.43-4.71-21.01-7.57-34.77-8.75-13.73-1.01-29.06-.8-45.75.91-16.9 1.59-33.85 3.69-50.85 6.32-17.13 2.83-33.81 5.39-49.8 7.97-16.15 2.61-30.23 4.58-42.31 5.59-5.6 6.22-10.94 12.88-15.87 19.8-4.94 6.92-8.98 13.98-12.11 21.35-3.32 7.24-5.6 14.59-6.83 22.04-1.39 7.49-1.31 14.65.26 21.63 2.71 12.04 8.56 21.31 17.37 27.87 8.83 6.56 19.68 10.78 32.65 12.98 12.93 2.04 27.52 2.35 43.69.58 16.22-1.6 33.02-4.36 50.41-8.27 23.25-5.24 43.63-11.87 61.08-20.07 17.5-8.04 31.9-16.92 43.04-26.61 11.15-9.68 19.11-19.85 23.8-30.13 4.65-10.44 5.74-20.77 3.48-30.85zm555.52-311.75c.43 2.97 1.04 6.08 1.85 9.33.83 3.42 2.1 6.43 3.7 9.41 1.77 2.94 4.11 5.13 6.84 6.59 2.92 1.6 6.86 2.04 11.65 1.36 6.1-.88 11.24-3.81 15.39-8.95 4.33-5 8.15-10.09 11.8-15.16l13 8.4c-3.81 7.45-8.83 15.92-14.91 25.21-6.1 9.13-13.7 18.3-23.03 27.22-9.17 8.89-20 16.68-32.65 23.55-12.46 7.01-26.95 11.62-43.78 14.04-14.19 2.04-26.82 2-37.76-.3-11.08-2.11-20.56-5.97-28.72-11.2-8.16-5.23-14.67-11.87-19.34-19.79-4.86-8.06-7.98-16.87-9.37-26.6l-3.13-21.78c-13.49 19.78-28.3 37.4-44.04 53.3-6.92 6.89-14.37 13.68-22.33 20.38-7.8 6.68-16.16 12.93-24.94 18.57-8.6 5.78-17.84 10.64-27.54 14.56-9.52 4.06-19.39 6.83-29.29 8.25-19.3 2.77-36.3 1.68-50.98-3.29-14.69-4.96-27.05-12.45-37.09-22.63-10.02-10-17.96-21.83-23.78-35.48-6-13.62-10.02-27.52-12.06-41.71l-42.95-299.09c-.43-2.97-1.04-6.08-1.87-9.5-.64-3.28-1.94-6.46-3.69-9.24-1.77-2.94-4.11-5.13-6.84-6.59-2.92-1.6-6.69-2.07-11.64-1.36-5.78.83-10.91 3.76-15.24 8.76-4.31 5.17-8.12 10.26-11.28 15.26l-13.65-8.31c3.95-7.64 8.83-15.92 14.9-25.21 6.07-9.29 13.71-18.3 23.04-27.22 9.16-8.89 20.16-16.7 32.79-23.74 12.65-6.87 27.31-11.5 43.65-13.85 14.19-2.04 26.82-2 38.09.26 11.08 2.11 20.7 5.78 28.7 11.03 8.02 5.42 14.34 11.91 19.2 19.97 4.7 8.08 7.82 16.89 9.22 26.63l46.37 322.85c.64 4.45 1.96 8.98 4.11 13.39 2.17 4.57 4.74 8.41 8.12 11.97 3.35 3.39 7.26 6.03 11.74 7.91s9.76 2.3 15.53 1.47c9.4-1.35 18.29-5.15 27-11.28 8.55-6.11 16.3-13.12 23.11-20.83 6.81-7.71 12.46-15.26 17.31-22.52 4.69-7.24 8.12-12.61 10.15-16.11l-40.54-282.27c-.43-2.97-1.04-6.08-1.87-9.5-.64-3.28-1.94-6.46-3.69-9.24-1.77-2.94-4.11-5.13-6.84-6.59-2.92-1.6-6.69-2.07-11.64-1.36-5.78.83-10.91 3.76-15.24 8.76-4.31 5.17-8.12 10.26-11.28 15.26l-13.65-8.31c3.95-7.64 8.83-15.92 14.9-25.21 6.07-9.29 13.7-18.3 23.04-27.22 9.16-8.89 20.16-16.7 32.79-23.74 12.65-6.87 27.31-11.5 43.65-13.85 14.19-2.04 26.82-2 38.09.26 11.08 2.11 20.7 5.78 28.7 11.04 8.02 5.41 14.34 11.91 19.2 19.97 4.7 8.08 7.81 16.89 9.22 26.63l49.89 347.44zm199.84-156.83c.87 10.46 3.31 21.63 7.49 33.49 4.17 11.86 9.52 23.79 16.53 35.57 6.85 11.8 14.97 23 24.54 33.4 9.58 10.57 20.22 19.71 32.25 27.57 11.85 7.7 24.89 13.64 38.96 17.81 14.05 4.01 29.22 5.41 45.33 4.06 11.46-.96 21.81-3.17 31.39-6.64 9.41-3.46 18.25-7.72 26.35-12.91 7.92-5.35 15.62-11.18 22.91-17.98 7.3-6.63 14.58-13.6 21.82-21.06l13.09 10.61c-6.62 10.76-15.17 22.51-25.96 35.46-10.62 12.93-23.79 25.41-39.51 37.43-15.56 11.84-34.26 22.28-55.59 31.09-21.5 8.83-46.29 14.42-74.53 16.78-28.23 2.37-56.23-.48-83.82-8.36-27.6-8.06-52.63-21.35-75.11-40.04-22.47-18.69-41.22-42.87-56.23-72.22-15.19-29.5-24.32-64.69-27.74-105.55-2.46-29.4-1.08-56.77 4.32-82.15 5.41-25.21 13.68-48.31 24.81-69.15 11.13-20.84 24.62-39.53 40.47-55.91 15.69-16.37 32.59-30.17 50.53-41.7 18.11-11.39 36.59-20.46 55.92-27.27 19.18-6.62 37.9-10.7 56-12.22 24.09-2.02 45.07-1.1 63.43 2.55 18.2 3.66 33.74 9.38 46.27 17.2 12.53 7.81 22.18 17.2 29.12 28.17 6.77 10.97 10.61 22.86 11.67 35.48 1.28 15.28-1.89 29.26-9.67 42.28-7.62 12.85-18.52 24.47-32.37 34.83l-182.67 129.38zm89.54-107.02c3.94-2.84 7.22-5.62 9.83-8.35 2.62-2.73 4.54-5.73 5.91-9.35 1.22-3.45 2.18-7.88 2.43-12.92.41-5.05.38-11.4-.24-18.88-.67-7.97-2.43-17.02-4.91-26.68-2.66-9.81-6.43-18.87-11.48-27.31-4.88-8.29-10.8-15.15-17.77-20.42-6.98-5.44-15.02-7.61-24.16-6.84-11.63.98-21.3 5.3-29.02 12.97-7.72 7.67-13.78 17.21-18.17 28.62-4.39 11.57-7.66 24.39-9.47 38.76-1.97 14.38-3.1 28.86-3.56 43.28-.3 14.41-.15 28.11.61 41.26.77 13.15 1.54 24.29 2.3 33.43l97.7-67.57z" class="fil1"/></g></g></svg>